<?xml version="1.0" encoding="utf-8" standalone="no"?>
<!DOCTYPE svg PUBLIC "-//W3C//DTD SVG 1.1//EN"
  "http://www.w3.org/Graphics/SVG/1.1/DTD/svg11.dtd">
<!-- Created with matplotlib (https://matplotlib.org/) -->
<svg height="504pt" version="1.1" viewBox="0 0 504 504" width="504pt" xmlns="http://www.w3.org/2000/svg" xmlns:xlink="http://www.w3.org/1999/xlink">
 <defs>
  <style type="text/css">
*{stroke-linecap:butt;stroke-linejoin:round;}
  </style>
 </defs>
 <g id="figure_1">
  <g id="patch_1">
   <path d="M 0 504 
L 504 504 
L 504 0 
L 0 0 
z
" style="fill:#ffffff;"/>
  </g>
  <g id="axes_1">
   <g id="patch_2">
    <path d="M 63 441 
L 453.6 441 
L 453.6 60.48 
L 63 60.48 
z
" style="fill:#ffffff;"/>
   </g>
   <g id="PathCollection_1">
    <defs>
     <path d="M 0 3 
C 0.795609 3 1.55874 2.683901 2.12132 2.12132 
C 2.683901 1.55874 3 0.795609 3 0 
C 3 -0.795609 2.683901 -1.55874 2.12132 -2.12132 
C 1.55874 -2.683901 0.795609 -3 0 -3 
C -0.795609 -3 -1.55874 -2.683901 -2.12132 -2.12132 
C -2.683901 -1.55874 -3 -0.795609 -3 0 
C -3 0.795609 -2.683901 1.55874 -2.12132 2.12132 
C -1.55874 2.683901 -0.795609 3 0 3 
z
" id="mc1cdf80b28" style="stroke:#1f77b4;"/>
    </defs>
    <g clip-path="url(#pd97bb7ceb4)">
     <use style="fill:#1f77b4;stroke:#1f77b4;" x="333.783302" xlink:href="#mc1cdf80b28" y="348.428607"/>
     <use style="fill:#1f77b4;stroke:#1f77b4;" x="288.851681" xlink:href="#mc1cdf80b28" y="305.585203"/>
     <use style="fill:#1f77b4;stroke:#1f77b4;" x="282.378385" xlink:href="#mc1cdf80b28" y="158.341198"/>
     <use style="fill:#1f77b4;stroke:#1f77b4;" x="293.951471" xlink:href="#mc1cdf80b28" y="161.194581"/>
     <use style="fill:#1f77b4;stroke:#1f77b4;" x="357.648178" xlink:href="#mc1cdf80b28" y="299.294849"/>
     <use style="fill:#1f77b4;stroke:#1f77b4;" x="333.783302" xlink:href="#mc1cdf80b28" y="348.428607"/>
    </g>
   </g>
   <g id="patch_3">
    <path clip-path="url(#pd97bb7ceb4)" d="M 266.51197 101.703242 
L 129.90162 154.022417 
L 416.837607 427.622926 
z
" style="fill:none;stroke:#000000;stroke-linejoin:miter;"/>
   </g>
   <g id="patch_4">
    <path clip-path="url(#pd97bb7ceb4)" d="M 282.378385 158.341198 
L 410.739372 189.989027 
L 294.308199 429.701193 
z
" style="fill:none;stroke:#ff0000;stroke-linejoin:miter;"/>
   </g>
   <g id="patch_5">
    <path clip-path="url(#pd97bb7ceb4)" d="M 333.783302 348.428607 
L 288.851681 305.585203 
L 282.378385 158.341198 
L 293.951471 161.194581 
L 357.648178 299.294849 
z
" style="fill:#808080;opacity:0.5;stroke:#808080;stroke-linejoin:miter;"/>
   </g>
   <g id="matplotlib.axis_1"/>
   <g id="matplotlib.axis_2"/>
   <g id="patch_6">
    <path d="M 63 441 
L 63 60.48 
" style="fill:none;stroke:#000000;stroke-linecap:square;stroke-linejoin:miter;stroke-width:0.8;"/>
   </g>
   <g id="patch_7">
    <path d="M 453.6 441 
L 453.6 60.48 
" style="fill:none;stroke:#000000;stroke-linecap:square;stroke-linejoin:miter;stroke-width:0.8;"/>
   </g>
   <g id="patch_8">
    <path d="M 63 441 
L 453.6 441 
" style="fill:none;stroke:#000000;stroke-linecap:square;stroke-linejoin:miter;stroke-width:0.8;"/>
   </g>
   <g id="patch_9">
    <path d="M 63 60.48 
L 453.6 60.48 
" style="fill:none;stroke:#000000;stroke-linecap:square;stroke-linejoin:miter;stroke-width:0.8;"/>
   </g>
  </g>
 </g>
 <defs>
  <clipPath id="pd97bb7ceb4">
   <rect height="380.52" width="390.6" x="63" y="60.48"/>
  </clipPath>
 </defs>
</svg>
